<?xml version="1.0" encoding="utf-8"?>
<svg version="1.1" xmlns:xlink="http://www.w3.org/1999/xlink" width="192px" height="29px" xmlns="http://www.w3.org/2000/svg">
  <defs>
    <mask fill="white" id="clip25">
      <path d="M 0 29  L 0 0  L 88.0733944954129 0  L 100.403669724771 0  L 121 0  L 192 0  L 192 29  L 0 29  Z " fill-rule="evenodd" />
    </mask>
  </defs>
  <g transform="matrix(1 0 0 1 -2895 -124 )">
    <path d="M 0 29  L 0 0  L 88.0733944954129 0  L 100.403669724771 0  L 121 0  L 192 0  L 192 29  L 0 29  Z " fill-rule="nonzero" fill="#ec808d" stroke="none" transform="matrix(1 0 0 1 2895 124 )" />
    <path d="M 0 29  L 0 0  L 88.0733944954129 0  L 100.403669724771 0  L 121 0  L 192 0  L 192 29  L 0 29  Z " stroke-width="2" stroke="#797979" fill="none" transform="matrix(1 0 0 1 2895 124 )" mask="url(#clip25)" />
  </g>
</svg>