<?xml version="1.0" encoding="utf-8"?>
<svg version="1.1" xmlns:xlink="http://www.w3.org/1999/xlink" width="199px" height="29px" xmlns="http://www.w3.org/2000/svg">
  <defs>
    <mask fill="white" id="clip36">
      <path d="M 0 29  L 0 0  L 91.2844036697249 0  L 104.064220183486 0  L 199 0  L 199 29  L 127.976430976431 29  L 0 29  Z " fill-rule="evenodd" />
    </mask>
  </defs>
  <g transform="matrix(1 0 0 1 -5796 -124 )">
    <path d="M 0 29  L 0 0  L 91.2844036697249 0  L 104.064220183486 0  L 199 0  L 199 29  L 127.976430976431 29  L 0 29  Z " fill-rule="nonzero" fill="#ec808d" stroke="none" transform="matrix(1 0 0 1 5796 124 )" />
    <path d="M 0 29  L 0 0  L 91.2844036697249 0  L 104.064220183486 0  L 199 0  L 199 29  L 127.976430976431 29  L 0 29  Z " stroke-width="2" stroke="#797979" fill="none" transform="matrix(1 0 0 1 5796 124 )" mask="url(#clip36)" />
  </g>
</svg>