<?xml version="1.0" encoding="utf-8"?>
<svg version="1.1" xmlns:xlink="http://www.w3.org/1999/xlink" width="153px" height="29px" xmlns="http://www.w3.org/2000/svg">
  <defs>
    <mask fill="white" id="clip37">
      <path d="M 0 29  L 0 0  L 70.1834862385322 0  L 80.0091743119266 0  L 153 0  L 153 29  L 98.3939393939394 29  L 0 29  Z " fill-rule="evenodd" />
    </mask>
  </defs>
  <g transform="matrix(1 0 0 1 -6066 -124 )">
    <path d="M 0 29  L 0 0  L 70.1834862385322 0  L 80.0091743119266 0  L 153 0  L 153 29  L 98.3939393939394 29  L 0 29  Z " fill-rule="nonzero" fill="#ec808d" stroke="none" transform="matrix(1 0 0 1 6066 124 )" />
    <path d="M 0 29  L 0 0  L 70.1834862385322 0  L 80.0091743119266 0  L 153 0  L 153 29  L 98.3939393939394 29  L 0 29  Z " stroke-width="2" stroke="#797979" fill="none" transform="matrix(1 0 0 1 6066 124 )" mask="url(#clip37)" />
  </g>
</svg>