<?xml version="1.0" encoding="utf-8"?>
<svg version="1.1" xmlns:xlink="http://www.w3.org/1999/xlink" width="242px" height="29px" xmlns="http://www.w3.org/2000/svg">
  <defs>
    <mask fill="white" id="clip15">
      <path d="M 0 29  L 0 0  L 111.009174311927 0  L 126.550458715596 0  L 242 0  L 242 29  L 155.62962962963 29  L 0 29  Z " fill-rule="evenodd" />
    </mask>
  </defs>
  <g transform="matrix(1 0 0 1 -6284 -124 )">
    <path d="M 0 29  L 0 0  L 111.009174311927 0  L 126.550458715596 0  L 242 0  L 242 29  L 155.62962962963 29  L 0 29  Z " fill-rule="nonzero" fill="#ec808d" stroke="none" transform="matrix(1 0 0 1 6284 124 )" />
    <path d="M 0 29  L 0 0  L 111.009174311927 0  L 126.550458715596 0  L 242 0  L 242 29  L 155.62962962963 29  L 0 29  Z " stroke-width="2" stroke="#797979" fill="none" transform="matrix(1 0 0 1 6284 124 )" mask="url(#clip15)" />
  </g>
</svg>