<?xml version="1.0" encoding="utf-8"?>
<svg version="1.1" xmlns:xlink="http://www.w3.org/1999/xlink" width="181px" height="29px" xmlns="http://www.w3.org/2000/svg">
  <defs>
    <mask fill="white" id="clip62">
      <path d="M 0 29  L 0 0  L 83.0275229357799 0  L 94.651376146789 0  L 181 0  L 181 29  L 116.400673400673 29  L 0 29  Z " fill-rule="evenodd" />
    </mask>
  </defs>
  <g transform="matrix(1 0 0 1 -6655 -124 )">
    <path d="M 0 29  L 0 0  L 83.0275229357799 0  L 94.651376146789 0  L 181 0  L 181 29  L 116.400673400673 29  L 0 29  Z " fill-rule="nonzero" fill="#ec808d" stroke="none" transform="matrix(1 0 0 1 6655 124 )" />
    <path d="M 0 29  L 0 0  L 83.0275229357799 0  L 94.651376146789 0  L 181 0  L 181 29  L 116.400673400673 29  L 0 29  Z " stroke-width="2" stroke="#797979" fill="none" transform="matrix(1 0 0 1 6655 124 )" mask="url(#clip62)" />
  </g>
</svg>