<?xml version="1.0" encoding="utf-8"?>
<svg version="1.1" xmlns:xlink="http://www.w3.org/1999/xlink" width="318px" height="29px" xmlns="http://www.w3.org/2000/svg">
  <defs>
    <mask fill="white" id="clip64">
      <path d="M 0 29  L 0 0  L 145.871559633028 0  L 166.293577981651 0  L 318 0  L 318 29  L 204.50505050505 29  L 0 29  Z " fill-rule="evenodd" />
    </mask>
  </defs>
  <g transform="matrix(1 0 0 1 -652 -124 )">
    <path d="M 0 29  L 0 0  L 145.871559633028 0  L 166.293577981651 0  L 318 0  L 318 29  L 204.50505050505 29  L 0 29  Z " fill-rule="nonzero" fill="#ec808d" stroke="none" transform="matrix(1 0 0 1 652 124 )" />
    <path d="M 0 29  L 0 0  L 145.871559633028 0  L 166.293577981651 0  L 318 0  L 318 29  L 204.50505050505 29  L 0 29  Z " stroke-width="2" stroke="#797979" fill="none" transform="matrix(1 0 0 1 652 124 )" mask="url(#clip64)" />
  </g>
</svg>