<?xml version="1.0" encoding="utf-8"?>
<svg version="1.1" xmlns:xlink="http://www.w3.org/1999/xlink" width="297px" height="29px" xmlns="http://www.w3.org/2000/svg">
  <defs>
    <mask fill="white" id="clip28">
      <path d="M 0 29  L 0 0  L 136.238532110092 0  L 155.311926605505 0  L 297 0  L 297 29  L 0 29  Z " fill-rule="evenodd" />
    </mask>
  </defs>
  <g transform="matrix(1 0 0 1 -4152 -124 )">
    <path d="M 0 29  L 0 0  L 136.238532110092 0  L 155.311926605505 0  L 297 0  L 297 29  L 0 29  Z " fill-rule="nonzero" fill="#ec808d" stroke="none" transform="matrix(1 0 0 1 4152 124 )" />
    <path d="M 0 29  L 0 0  L 136.238532110092 0  L 155.311926605505 0  L 297 0  L 297 29  L 0 29  Z " stroke-width="2" stroke="#797979" fill="none" transform="matrix(1 0 0 1 4152 124 )" mask="url(#clip28)" />
  </g>
</svg>