<?xml version="1.0" encoding="utf-8"?>
<svg version="1.1" xmlns:xlink="http://www.w3.org/1999/xlink" width="207px" height="29px" xmlns="http://www.w3.org/2000/svg">
  <defs>
    <mask fill="white" id="clip65">
      <path d="M 0 29  L 0 0  L 94.9541284403671 0  L 108.247706422018 0  L 207 0  L 207 29  L 133.121212121212 29  L 0 29  Z " fill-rule="evenodd" />
    </mask>
  </defs>
  <g transform="matrix(1 0 0 1 -7111 -124 )">
    <path d="M 0 29  L 0 0  L 94.9541284403671 0  L 108.247706422018 0  L 207 0  L 207 29  L 133.121212121212 29  L 0 29  Z " fill-rule="nonzero" fill="#ec808d" stroke="none" transform="matrix(1 0 0 1 7111 124 )" />
    <path d="M 0 29  L 0 0  L 94.9541284403671 0  L 108.247706422018 0  L 207 0  L 207 29  L 133.121212121212 29  L 0 29  Z " stroke-width="2" stroke="#797979" fill="none" transform="matrix(1 0 0 1 7111 124 )" mask="url(#clip65)" />
  </g>
</svg>