<?xml version="1.0" encoding="utf-8"?>
<svg version="1.1" xmlns:xlink="http://www.w3.org/1999/xlink" width="165px" height="29px" xmlns="http://www.w3.org/2000/svg">
  <defs>
    <mask fill="white" id="clip7">
      <path d="M 0 29  L 0 0  L 75.6880733944955 0  L 86.2844036697248 0  L 103.984375 0  L 165 0  L 165 29  L 0 29  Z " fill-rule="evenodd" />
    </mask>
  </defs>
  <g transform="matrix(1 0 0 1 -3760 -124 )">
    <path d="M 0 29  L 0 0  L 75.6880733944955 0  L 86.2844036697248 0  L 103.984375 0  L 165 0  L 165 29  L 0 29  Z " fill-rule="nonzero" fill="#ec808d" stroke="none" transform="matrix(1 0 0 1 3760 124 )" />
    <path d="M 0 29  L 0 0  L 75.6880733944955 0  L 86.2844036697248 0  L 103.984375 0  L 165 0  L 165 29  L 0 29  Z " stroke-width="2" stroke="#797979" fill="none" transform="matrix(1 0 0 1 3760 124 )" mask="url(#clip7)" />
  </g>
</svg>