<?xml version="1.0" encoding="utf-8"?>
<svg version="1.1" xmlns:xlink="http://www.w3.org/1999/xlink" width="162px" height="29px" xmlns="http://www.w3.org/2000/svg">
  <defs>
    <mask fill="white" id="clip56">
      <path d="M 0 29  L 0 0  L 74.3119266055047 0  L 84.7155963302752 0  L 162 0  L 162 29  L 104.181818181818 29  L 0 29  Z " fill-rule="evenodd" />
    </mask>
  </defs>
  <g transform="matrix(1 0 0 1 -4887 -124 )">
    <path d="M 0 29  L 0 0  L 74.3119266055047 0  L 84.7155963302752 0  L 162 0  L 162 29  L 104.181818181818 29  L 0 29  Z " fill-rule="nonzero" fill="#ec808d" stroke="none" transform="matrix(1 0 0 1 4887 124 )" />
    <path d="M 0 29  L 0 0  L 74.3119266055047 0  L 84.7155963302752 0  L 162 0  L 162 29  L 104.181818181818 29  L 0 29  Z " stroke-width="2" stroke="#797979" fill="none" transform="matrix(1 0 0 1 4887 124 )" mask="url(#clip56)" />
  </g>
</svg>