<?xml version="1.0" encoding="utf-8"?>
<svg version="1.1" xmlns:xlink="http://www.w3.org/1999/xlink" width="283px" height="29px" xmlns="http://www.w3.org/2000/svg">
  <defs>
    <mask fill="white" id="clip35">
      <path d="M 0 29  L 0 0  L 129.816513761468 0  L 147.990825688073 0  L 283 0  L 283 29  L 181.996632996633 29  L 0 29  Z " fill-rule="evenodd" />
    </mask>
  </defs>
  <g transform="matrix(1 0 0 1 -5498 -124 )">
    <path d="M 0 29  L 0 0  L 129.816513761468 0  L 147.990825688073 0  L 283 0  L 283 29  L 181.996632996633 29  L 0 29  Z " fill-rule="nonzero" fill="#ec808d" stroke="none" transform="matrix(1 0 0 1 5498 124 )" />
    <path d="M 0 29  L 0 0  L 129.816513761468 0  L 147.990825688073 0  L 283 0  L 283 29  L 181.996632996633 29  L 0 29  Z " stroke-width="2" stroke="#797979" fill="none" transform="matrix(1 0 0 1 5498 124 )" mask="url(#clip35)" />
  </g>
</svg>