<?xml version="1.0" encoding="utf-8"?>
<svg version="1.1" xmlns:xlink="http://www.w3.org/1999/xlink" width="27px" height="850px" xmlns="http://www.w3.org/2000/svg">
  <defs>
    <mask fill="white" id="clip70">
      <path d="M 0 850  L 0 809.784946236559  L 0 0  L 27 0  L 27 796.075268817204  L 27 850  L 0 850  Z " fill-rule="evenodd" />
    </mask>
  </defs>
  <g transform="matrix(1 0 0 1 -3944 -3552 )">
    <path d="M 0 850  L 0 809.784946236559  L 0 0  L 27 0  L 27 796.075268817204  L 27 850  L 0 850  Z " fill-rule="nonzero" fill="#ec808d" stroke="none" transform="matrix(1 0 0 1 3944 3552 )" />
    <path d="M 0 850  L 0 809.784946236559  L 0 0  L 27 0  L 27 796.075268817204  L 27 850  L 0 850  Z " stroke-width="2" stroke="#797979" fill="none" transform="matrix(1 0 0 1 3944 3552 )" mask="url(#clip70)" />
  </g>
</svg>